<svg width="345" height="48" viewBox="0 0 345 48" fill="none" xmlns="http://www.w3.org/2000/svg">
<path d="M332.543 23.7594C331.266 23.7594 330.212 24.0513 329.381 24.635C328.551 25.1896 327.944 25.9339 327.561 26.8679C327.177 27.7728 326.986 28.7944 326.986 29.9327V40.0026H320.183V29.1884C320.183 27.0869 320.63 25.175 321.524 23.4529C322.45 21.7016 323.824 20.3152 325.644 19.2936C327.465 18.2428 329.765 17.7174 332.543 17.7174C335.322 17.7174 337.622 18.2428 339.442 19.2936C341.295 20.3152 342.684 21.687 343.61 23.4091C344.537 25.1312 345 27.0577 345 29.1884V40.0026H338.197V29.9327C338.197 28.8236 337.989 27.802 337.574 26.8679C337.159 25.9339 336.536 25.1896 335.705 24.635C334.907 24.0513 333.853 23.7594 332.543 23.7594Z" fill="white"/>
<path d="M306.731 18.3303H313.534V40.0026H306.731V18.3303ZM310.132 15.0905C309.366 15.0905 308.647 14.9299 307.976 14.6088C307.337 14.2586 306.826 13.7916 306.443 13.2078C306.092 12.5949 305.916 11.9381 305.916 11.2376C305.916 10.5371 306.092 9.89495 306.443 9.31119C306.826 8.72742 307.337 8.26041 307.976 7.91015C308.647 7.55989 309.366 7.38477 310.132 7.38477C310.899 7.38477 311.601 7.55989 312.24 7.91015C312.879 8.26041 313.374 8.72742 313.725 9.31119C314.109 9.89495 314.3 10.5371 314.3 11.2376C314.3 11.9381 314.109 12.5949 313.725 13.2078C313.374 13.7916 312.879 14.2586 312.24 14.6088C311.601 14.9299 310.899 15.0905 310.132 15.0905Z" fill="white"/>
<path d="M286.089 40.5717C283.789 40.5717 281.761 40.061 280.004 39.0394C278.247 37.9886 276.858 36.6022 275.836 34.88C274.846 33.1288 274.351 31.2023 274.351 29.1008C274.351 27.0284 274.91 25.1312 276.028 23.4091C277.177 21.6578 278.711 20.2714 280.627 19.2498C282.575 18.199 284.763 17.6736 287.191 17.6736C289.65 17.6736 291.854 18.1844 293.802 19.206C295.75 20.1984 297.284 21.5556 298.401 23.2777C299.519 24.9707 300.078 26.9117 300.078 29.1008V40.0026H293.61V32.1655L295.671 31.6402C295.671 33.3331 295.271 34.8655 294.473 36.2373C293.674 37.58 292.572 38.6453 291.167 39.4334C289.762 40.1923 288.069 40.5717 286.089 40.5717ZM287.191 34.7487C288.372 34.7487 289.41 34.5006 290.305 34.0044C291.231 33.479 291.95 32.7931 292.461 31.9466C293.004 31.1002 293.275 30.1662 293.275 29.1446C293.275 28.123 293.004 27.189 292.461 26.3425C291.95 25.496 291.231 24.8247 290.305 24.3285C289.41 23.8031 288.372 23.5404 287.191 23.5404C286.041 23.5404 285.003 23.8031 284.076 24.3285C283.182 24.8247 282.464 25.496 281.921 26.3425C281.41 27.189 281.154 28.123 281.154 29.1446C281.154 30.1662 281.41 31.1002 281.921 31.9466C282.464 32.7931 283.182 33.479 284.076 34.0044C285.003 34.5006 286.041 34.7487 287.191 34.7487Z" fill="white"/>
<path d="M252.056 40.0026H245.253V8.34802H252.056V24.5037H248.894C248.99 23.307 249.485 22.1978 250.379 21.1762C251.273 20.1255 252.455 19.2936 253.924 18.6806C255.394 18.0385 257.007 17.7174 258.763 17.7174C261.191 17.7174 263.219 18.1698 264.848 19.0747C266.477 19.9503 267.706 21.2054 268.537 22.84C269.367 24.4745 269.782 26.4447 269.782 28.7506V40.0026L262.979 39.9588V29.3635C262.979 28.3419 262.772 27.3933 262.356 26.5177C261.973 25.642 261.382 24.9415 260.584 24.4161C259.817 23.8615 258.859 23.5843 257.709 23.5843C256.591 23.5843 255.601 23.8324 254.739 24.3286C253.876 24.8248 253.206 25.5253 252.727 26.4301C252.28 27.3058 252.056 28.3127 252.056 29.4511V40.0026Z" fill="white"/>
<path d="M227.394 40.6155C225.031 40.6155 222.843 40.2215 220.831 39.4334C218.819 38.6453 217.046 37.5508 215.513 36.1497C213.98 34.7487 212.782 33.1288 211.92 31.2899C211.089 29.4219 210.674 27.4225 210.674 25.2917C210.674 23.1318 211.089 21.1324 211.92 19.2936C212.782 17.4547 213.98 15.8348 215.513 14.4337C217.046 13.0327 218.819 11.9381 220.831 11.1501C222.843 10.362 225.031 9.96794 227.394 9.96794C229.247 9.96794 231.051 10.2598 232.808 10.8436C234.565 11.4273 236.13 12.2592 237.503 13.3392C238.909 14.4191 239.995 15.7326 240.761 17.2796L235.06 20.213C234.261 18.9287 233.223 17.9217 231.946 17.192C230.668 16.4331 229.055 16.0537 227.107 16.0537C225.765 16.0537 224.52 16.2872 223.37 16.7542C222.252 17.192 221.278 17.8342 220.448 18.6806C219.617 19.4979 218.978 20.4757 218.531 21.614C218.084 22.7232 217.86 23.9491 217.86 25.2917C217.86 26.6052 218.084 27.8311 218.531 28.9694C218.978 30.1078 219.601 31.1002 220.4 31.9466C221.23 32.7639 222.22 33.4061 223.37 33.8731C224.52 34.3109 225.765 34.5298 227.107 34.5298C229.055 34.5298 230.668 34.1503 231.946 33.3915C233.255 32.6326 234.293 31.6256 235.06 30.3705L240.761 33.3039C239.995 34.8509 238.909 36.1643 237.503 37.2443C236.13 38.3243 234.565 39.1561 232.808 39.7399C231.051 40.3237 229.247 40.6155 227.394 40.6155Z" fill="white"/>
<path d="M194.367 34.5736C195.549 34.5736 196.523 34.2963 197.289 33.7417C198.088 33.1579 198.679 32.399 199.062 31.465C199.445 30.5018 199.637 29.4656 199.637 28.3565V18.3303H206.44V29.1008C206.44 31.2315 205.977 33.1725 205.051 34.9238C204.156 36.6459 202.815 38.0178 201.026 39.0394C199.238 40.0609 197.018 40.5717 194.367 40.5717C191.748 40.5717 189.544 40.0609 187.755 39.0394C185.967 38.0178 184.609 36.6313 183.683 34.88C182.789 33.1287 182.341 31.2023 182.341 29.1008V18.3303H189.145V28.4003C189.145 29.4802 189.336 30.5018 189.72 31.465C190.103 32.399 190.678 33.1579 191.444 33.7417C192.243 34.2963 193.217 34.5736 194.367 34.5736Z" fill="white"/>
<path d="M165.318 17.5423C167.905 17.5423 170.045 18.0531 171.738 19.0747C173.463 20.0963 174.756 21.4389 175.619 23.1026C176.513 24.7664 176.96 26.6198 176.96 28.663V40.0026H170.157V29.7138C170.157 28.5754 169.965 27.5538 169.582 26.649C169.231 25.715 168.656 24.9707 167.857 24.4161C167.091 23.8615 166.085 23.5842 164.839 23.5842C163.593 23.5842 162.587 23.8615 161.821 24.4161C161.054 24.9415 160.479 25.6712 160.096 26.6052C159.745 27.5101 159.569 28.517 159.569 29.6262V40.0026H152.766V29.67C152.766 28.5316 152.59 27.5101 152.239 26.6052C151.888 25.6712 151.313 24.9415 150.514 24.4161C149.716 23.8615 148.71 23.5842 147.496 23.5842C146.218 23.5842 145.196 23.8615 144.43 24.4161C143.663 24.9707 143.104 25.715 142.753 26.649C142.401 27.5538 142.226 28.5608 142.226 29.67V40.0026H135.423V28.663C135.423 26.649 135.854 24.8102 136.716 23.1464C137.579 21.4535 138.856 20.0963 140.549 19.0747C142.274 18.0531 144.414 17.5423 146.969 17.5423C149.013 17.5423 150.77 17.8925 152.239 18.5931C153.74 19.2644 154.89 20.213 155.688 21.4389C156.519 22.6356 156.95 24.0367 156.982 25.642H155.449C155.481 24.0367 155.928 22.6356 156.79 21.4389C157.653 20.213 158.818 19.2644 160.288 18.5931C161.757 17.8925 163.434 17.5423 165.318 17.5423Z" fill="white"/>
<path d="M119.182 40.5717C116.722 40.5717 114.503 40.0901 112.522 39.1269C110.574 38.1345 109.041 36.7772 107.923 35.0551C106.805 33.3038 106.246 31.2753 106.246 28.9694C106.246 26.897 106.757 24.9998 107.779 23.2777C108.833 21.5264 110.286 20.14 112.139 19.1184C113.991 18.0676 116.131 17.5422 118.559 17.5422C121.082 17.5422 123.222 18.053 124.979 19.0746C126.735 20.067 128.077 21.3951 129.003 23.0588C129.961 24.7225 130.44 26.5468 130.44 28.5316V30.3704H111.66L112.714 28.838C112.65 30.064 112.874 31.1585 113.385 32.1217C113.928 33.0849 114.678 33.8438 115.636 34.3984C116.626 34.9238 117.792 35.1865 119.134 35.1865C120.411 35.1865 121.561 34.9092 122.583 34.3546C123.637 33.8 124.436 33.0266 124.979 32.0342L130.201 34.4422C129.179 36.3978 127.71 37.9156 125.793 38.9955C123.909 40.0463 121.705 40.5717 119.182 40.5717ZM113.097 26.9116H123.685C123.589 26.1527 123.302 25.4814 122.823 24.8976C122.376 24.2847 121.785 23.8177 121.05 23.4966C120.316 23.1464 119.469 22.9712 118.511 22.9712C117.521 22.9712 116.642 23.1464 115.876 23.4966C115.141 23.8469 114.534 24.3285 114.055 24.9414C113.608 25.5252 113.289 26.1819 113.097 26.9116ZM127.23 8.74198V13.4705H109.887V8.74198H127.23Z" fill="white"/>
<path d="M88.6721 40.6155C86.3085 40.6155 84.1047 40.2215 82.0606 39.4334C80.0484 38.6453 78.2757 37.5508 76.7426 36.1497C75.2414 34.7487 74.0597 33.1288 73.1973 31.2899C72.3669 29.4219 71.9517 27.4225 71.9517 25.2917C71.9517 23.161 72.3669 21.1762 73.1973 19.3373C74.0277 17.4693 75.1935 15.8493 76.6947 14.4775C78.2278 13.0765 80.0164 11.9819 82.0606 11.1938C84.1047 10.4058 86.3085 10.0117 88.6721 10.0117C90.4926 10.0117 92.2813 10.289 94.0379 10.8436C95.7946 11.3981 97.3597 12.2154 98.7331 13.2954C100.138 14.3462 101.24 15.6742 102.039 17.2796L96.3376 20.213C95.7946 19.3373 95.1398 18.593 94.3733 17.9801C93.6387 17.3379 92.7763 16.8563 91.7862 16.5353C90.7961 16.185 89.6622 16.0099 88.3846 16.0099C87.0112 16.0099 85.7656 16.258 84.6477 16.7542C83.5298 17.2212 82.5556 17.8779 81.7252 18.7244C80.8948 19.5417 80.256 20.5195 79.8088 21.6578C79.3617 22.7961 79.1381 24.0366 79.1381 25.3793C79.1381 26.7511 79.3617 28.0208 79.8088 29.1884C80.2879 30.3267 80.9427 31.3191 81.7731 32.1655C82.6035 33.012 83.6096 33.6687 84.7914 34.1357C85.9732 34.5736 87.2667 34.7925 88.6721 34.7925C89.7261 34.7925 90.6843 34.7049 91.5466 34.5298C92.409 34.3547 93.1756 34.1212 93.8463 33.8293C94.549 33.5082 95.1398 33.1142 95.6189 32.6471L95.571 26.1236H102.374V34.7925C101.608 35.8724 100.554 36.8503 99.2122 37.7259C97.8707 38.6015 96.3056 39.3021 94.517 39.8274C92.7284 40.3528 90.7801 40.6155 88.6721 40.6155Z" fill="white"/>
<path fill-rule="evenodd" clip-rule="evenodd" d="M29.655 48C26.1317 48 22.835 47.373 19.7648 46.119C16.7449 44.865 14.0773 43.1466 11.762 40.9637C9.44678 38.7344 7.63483 36.1567 6.32621 33.2308C5.88174 32.1972 5.51578 31.1405 5.22831 30.0606H2.46598C1.10406 30.0606 0 28.9752 0 27.6364C0 26.2975 1.10406 25.2121 2.46598 25.2121H4.47271C4.45008 24.7766 4.43877 24.3377 4.43877 23.8955C4.43877 23.1944 4.46802 22.502 4.52654 21.8182H2.46598C1.10406 21.8182 0 20.7328 0 19.3939C0 18.0551 1.10406 16.9697 2.46598 16.9697H5.47658C5.71776 16.2006 6.00097 15.4439 6.32621 14.6996C7.63483 11.82 9.42161 9.28882 11.6865 7.10595C14.0018 4.87663 16.6945 3.13498 19.7648 1.88099C22.835 0.626996 26.1317 0 29.655 0C32.3225 0 34.9146 0.394775 37.4312 1.18433C39.9981 1.97387 42.3134 3.13498 44.377 4.66764C45.8621 5.71177 47.161 6.95076 48.2735 8.3846C49.0571 9.39458 48.6505 10.8157 47.5179 11.427C46.4384 12.0096 45.0977 11.6359 44.3236 10.6943C43.4636 9.64806 42.4748 8.73062 41.3571 7.94195C39.6458 6.7344 37.7584 5.82874 35.6948 5.22496C33.6815 4.57475 31.6179 4.24964 29.504 4.24964C26.6854 4.24964 24.043 4.76052 21.5767 5.78229C19.1608 6.80406 17.0469 8.22061 15.2349 10.0319C13.423 11.8433 11.9885 13.9565 10.9316 16.3716C10.8473 16.5698 10.7666 16.7692 10.6894 16.9697H47.3469C48.7088 16.9697 49.8128 18.0551 49.8128 19.3939C49.8128 20.7328 48.7088 21.8182 47.3469 21.8182H9.53175C9.45832 22.522 9.42161 23.2376 9.42161 23.9652C9.42161 24.3846 9.4334 24.8003 9.45699 25.2121H47.3469C48.7088 25.2121 49.8128 26.2975 49.8128 27.6364V37.3581C49.8128 38.6562 49.3926 39.9387 48.4599 40.8576C47.5658 41.7385 46.5068 42.6098 45.283 43.4717C43.3704 44.7721 41.0803 45.8636 38.4127 46.746C35.7954 47.582 32.8762 48 29.655 48ZM10.9316 31.6981C10.7074 31.1603 10.5082 30.6145 10.334 30.0606H45.0565V35.695C45.0565 37.0303 44.615 38.36 43.5639 39.2058C42.9729 39.6815 42.2876 40.1513 41.5081 40.6154C39.9981 41.5443 38.2114 42.3106 36.1478 42.9144C34.1345 43.4717 31.9702 43.7504 29.655 43.7504C26.7861 43.7504 24.1185 43.2395 21.6522 42.2177C19.186 41.1959 17.0469 39.7794 15.2349 37.9681C13.423 36.1568 11.9885 34.0668 10.9316 31.6981Z" fill="url(#paint0_linear_389_4182)"/>
<defs>
<linearGradient id="paint0_linear_389_4182" x1="39.9489" y1="10.4242" x2="20.2095" y2="41.2778" gradientUnits="userSpaceOnUse">
<stop stop-color="#10F9F5"/>
<stop offset="1" stop-color="#FF007E"/>
</linearGradient>
</defs>
</svg>
